<?xml version="1.0" encoding="UTF-8" standalone="no"?>
<svg
   xmlns:dc="http://purl.org/dc/elements/1.1/"
   xmlns:cc="http://creativecommons.org/ns#"
   xmlns:rdf="http://www.w3.org/1999/02/22-rdf-syntax-ns#"
   xmlns:svg="http://www.w3.org/2000/svg"
   xmlns="http://www.w3.org/2000/svg"
   id="svg8"
   version="1.1"
   viewBox="0 0 267.96918 47.36815">
  <defs
     id="defs2" />
  <metadata
     id="metadata5">
    <rdf:RDF>
      <cc:Work
         rdf:about="">
        <dc:format>image/svg+xml</dc:format>
        <dc:type
           rdf:resource="http://purl.org/dc/dcmitype/StillImage" />
        <dc:title></dc:title>
      </cc:Work>
    </rdf:RDF>
  </metadata>
  <g
     transform="translate(-14.515409,-167.61885)"
     id="layer1">
    <g
       id="flowRoot18"
       style="font-style:normal;font-weight:normal;font-size:40px;line-height:1.25;font-family:sans-serif;letter-spacing:0px;word-spacing:0px;fill:#000000;fill-opacity:1;stroke:none"
       transform="matrix(0.26458333,0,0,0.26458333,-40.720835,99.195069)"
       aria-label="Destroyer2">
      <path
         id="path59"
         style="font-style:normal;font-variant:normal;font-weight:normal;font-stretch:normal;font-size:192px;font-family:Montserrat;-inkscape-font-specification:'Montserrat, Normal';font-variant-ligatures:normal;font-variant-caps:normal;font-variant-numeric:normal;font-feature-settings:normal;text-align:start;writing-mode:lr-tb;text-anchor:start"
         d="m 208.76691,265.0308 h 54.72 q 21.312,0 37.632,8.64 16.32,8.448 25.344,23.808 9.024,15.168 9.024,34.752 0,19.584 -9.024,34.944 -9.024,15.168 -25.344,23.808 -16.32,8.448 -37.632,8.448 h -54.72 z m 53.952,122.112 q 17.664,0 30.912,-6.912 13.248,-7.104 20.544,-19.392 7.296,-12.48 7.296,-28.608 0,-16.128 -7.296,-28.416 -7.296,-12.48 -20.544,-19.392 -13.248,-7.104 -30.912,-7.104 h -39.744 v 109.824 z" />
      <path
         id="path61"
         style="font-style:normal;font-variant:normal;font-weight:normal;font-stretch:normal;font-size:192px;font-family:Montserrat;-inkscape-font-specification:'Montserrat, Normal';font-variant-ligatures:normal;font-variant-caps:normal;font-variant-numeric:normal;font-feature-settings:normal;text-align:start;writing-mode:lr-tb;text-anchor:start"
         d="m 452.41458,353.1588 h -84.48 q 1.152,15.744 12.096,25.536 10.944,9.6 27.648,9.6 9.408,0 17.28,-3.264 7.872,-3.456 13.632,-9.984 l 7.68,8.832 q -6.72,8.064 -16.896,12.288 -9.984,4.224 -22.08,4.224 -15.552,0 -27.648,-6.528 -11.904,-6.72 -18.624,-18.432 -6.72,-11.712 -6.72,-26.496 0,-14.784 6.336,-26.496 6.528,-11.712 17.664,-18.24 11.328,-6.528 25.344,-6.528 14.016,0 25.152,6.528 11.136,6.528 17.472,18.24 6.336,11.52 6.336,26.496 z m -48.768,-43.776 q -14.592,0 -24.576,9.408 -9.792,9.216 -11.136,24.192 h 71.616 q -1.344,-14.976 -11.328,-24.192 -9.792,-9.408 -24.576,-9.408 z" />
      <path
         id="path63"
         style="font-style:normal;font-variant:normal;font-weight:normal;font-stretch:normal;font-size:192px;font-family:Montserrat;-inkscape-font-specification:'Montserrat, Normal';font-variant-ligatures:normal;font-variant-caps:normal;font-variant-numeric:normal;font-feature-settings:normal;text-align:start;writing-mode:lr-tb;text-anchor:start"
         d="m 507.51823,400.3908 q -12.288,0 -23.616,-3.456 -11.136,-3.648 -17.472,-9.024 l 6.144,-10.752 q 6.336,4.992 15.936,8.256 9.6,3.072 19.968,3.072 13.824,0 20.352,-4.224 6.72,-4.416 6.72,-12.288 0,-5.568 -3.648,-8.64 -3.648,-3.264 -9.216,-4.8 -5.568,-1.728 -14.784,-3.264 -12.288,-2.304 -19.776,-4.608 -7.488,-2.496 -12.864,-8.256 -5.184,-5.76 -5.184,-15.936 0,-12.672 10.56,-20.736 10.56,-8.064 29.376,-8.064 9.792,0 19.584,2.688 9.792,2.496 16.128,6.72 l -5.952,10.944 q -12.48,-8.64 -29.76,-8.64 -13.056,0 -19.776,4.608 -6.528,4.608 -6.528,12.096 0,5.76 3.648,9.216 3.84,3.456 9.408,5.184 5.568,1.536 15.36,3.264 12.096,2.304 19.392,4.608 7.296,2.304 12.48,7.872 5.184,5.568 5.184,15.36 0,13.248 -11.136,21.12 -10.944,7.68 -30.528,7.68 z" />
      <path
         id="path65"
         style="font-style:normal;font-variant:normal;font-weight:normal;font-stretch:normal;font-size:192px;font-family:Montserrat;-inkscape-font-specification:'Montserrat, Normal';font-variant-ligatures:normal;font-variant-caps:normal;font-variant-numeric:normal;font-feature-settings:normal;text-align:start;writing-mode:lr-tb;text-anchor:start"
         d="m 627.51793,393.2868 q -3.84,3.456 -9.6,5.376 -5.568,1.728 -11.712,1.728 -14.208,0 -21.888,-7.68 -7.68,-7.68 -7.68,-21.696 v -61.056 h -18.048 v -11.52 h 18.048 v -22.08 h 13.632 v 22.08 h 30.72 v 11.52 h -30.72 v 60.288 q 0,9.024 4.416,13.824 4.608,4.608 13.056,4.608 4.224,0 8.064,-1.344 4.032,-1.344 6.912,-3.84 z" />
      <path
         id="path67"
         style="font-style:normal;font-variant:normal;font-weight:normal;font-stretch:normal;font-size:192px;font-family:Montserrat;-inkscape-font-specification:'Montserrat, Normal';font-variant-ligatures:normal;font-variant-caps:normal;font-variant-numeric:normal;font-feature-settings:normal;text-align:start;writing-mode:lr-tb;text-anchor:start"
         d="m 665.34159,318.2148 q 4.8,-10.176 14.208,-15.36 9.6,-5.184 23.616,-5.184 v 13.248 l -3.264,-0.192 q -15.936,0 -24.96,9.792 -9.024,9.792 -9.024,27.456 v 51.456 h -13.632 v -100.992 h 13.056 z" />
      <path
         id="path69"
         style="font-style:normal;font-variant:normal;font-weight:normal;font-stretch:normal;font-size:192px;font-family:Montserrat;-inkscape-font-specification:'Montserrat, Normal';font-variant-ligatures:normal;font-variant-caps:normal;font-variant-numeric:normal;font-feature-settings:normal;text-align:start;writing-mode:lr-tb;text-anchor:start"
         d="m 768.06132,400.3908 q -14.592,0 -26.304,-6.528 -11.712,-6.72 -18.432,-18.432 -6.72,-11.712 -6.72,-26.496 0,-14.784 6.72,-26.496 6.72,-11.712 18.432,-18.24 11.712,-6.528 26.304,-6.528 14.592,0 26.304,6.528 11.712,6.528 18.24,18.24 6.72,11.712 6.72,26.496 0,14.784 -6.72,26.496 -6.528,11.712 -18.24,18.432 -11.712,6.528 -26.304,6.528 z m 0,-12.096 q 10.752,0 19.2,-4.8 8.64,-4.992 13.44,-14.016 4.8,-9.024 4.8,-20.544 0,-11.52 -4.8,-20.544 -4.8,-9.024 -13.44,-13.824 -8.448,-4.992 -19.2,-4.992 -10.752,0 -19.392,4.992 -8.448,4.8 -13.44,13.824 -4.8,9.024 -4.8,20.544 0,11.52 4.8,20.544 4.992,9.024 13.44,14.016 8.64,4.8 19.392,4.8 z" />
      <path
         id="path71"
         style="font-style:normal;font-variant:normal;font-weight:normal;font-stretch:normal;font-size:192px;font-family:Montserrat;-inkscape-font-specification:'Montserrat, Normal';font-variant-ligatures:normal;font-variant-caps:normal;font-variant-numeric:normal;font-feature-settings:normal;text-align:start;writing-mode:lr-tb;text-anchor:start"
         d="m 929.14886,298.4388 -50.496,113.088 q -6.144,14.208 -14.208,20.16 -8.064,5.952 -19.392,5.952 -7.296,0 -13.632,-2.304 -6.336,-2.304 -10.944,-6.912 l 6.336,-10.176 q 7.68,7.68 18.432,7.68 6.912,0 11.712,-3.84 4.992,-3.84 9.216,-13.056 l 4.416,-9.792 -45.12,-100.8 h 14.208 l 38.016,85.824 38.016,-85.824 z" />
      <path
         id="path73"
         style="font-style:normal;font-variant:normal;font-weight:normal;font-stretch:normal;font-size:192px;font-family:Montserrat;-inkscape-font-specification:'Montserrat, Normal';font-variant-ligatures:normal;font-variant-caps:normal;font-variant-numeric:normal;font-feature-settings:normal;text-align:start;writing-mode:lr-tb;text-anchor:start"
         d="m 1033.4046,353.1588 h -84.48003 q 1.152,15.744 12.096,25.536 10.944,9.6 27.648,9.6 9.408,0 17.28003,-3.264 7.872,-3.456 13.632,-9.984 l 7.68,8.832 q -6.72,8.064 -16.896,12.288 -9.984,4.224 -22.08003,4.224 -15.552,0 -27.648,-6.528 -11.904,-6.72 -18.624,-18.432 -6.72,-11.712 -6.72,-26.496 0,-14.784 6.336,-26.496 6.528,-11.712 17.664,-18.24 11.328,-6.528 25.344,-6.528 14.016,0 25.15203,6.528 11.136,6.528 17.472,18.24 6.336,11.52 6.336,26.496 z m -48.76803,-43.776 q -14.592,0 -24.576,9.408 -9.792,9.216 -11.136,24.192 h 71.61603 q -1.344,-14.976 -11.328,-24.192 -9.79203,-9.408 -24.57603,-9.408 z" />
      <path
         id="path76"
         style="font-style:normal;font-variant:normal;font-weight:normal;font-stretch:normal;font-size:192px;font-family:Montserrat;-inkscape-font-specification:'Montserrat, Normal';font-variant-ligatures:normal;font-variant-caps:normal;font-variant-numeric:normal;font-feature-settings:normal;text-align:start;writing-mode:lr-tb;text-anchor:start"
         d="m 1074.4922,318.2148 q 4.8,-10.176 14.208,-15.36 9.6,-5.184 23.616,-5.184 v 13.248 l -3.264,-0.192 q -15.936,0 -24.96,9.792 -9.024,9.792 -9.024,27.456 v 51.456 h -13.632 v -100.992 h 13.056 z" />
      <path
         id="path78"
         style="font-style:normal;font-variant:normal;font-weight:normal;font-stretch:normal;font-size:192px;font-family:Montserrat;-inkscape-font-specification:'Montserrat, Normal';font-variant-ligatures:normal;font-variant-caps:normal;font-variant-numeric:normal;font-feature-settings:normal;text-align:start;writing-mode:lr-tb;text-anchor:start"
         d="m 1221.5638,387.1428 v 12.288 h -94.272 v -9.792 l 55.872,-54.72 q 10.56,-10.368 14.208,-17.856 3.84,-7.68 3.84,-15.36 0,-11.904 -8.256,-18.432 -8.064,-6.72 -23.232,-6.72 -23.616,0 -36.672,14.976 l -9.792,-8.448 q 7.872,-9.216 19.968,-14.208 12.288,-4.992 27.648,-4.992 20.544,0 32.448,9.792 12.096,9.6 12.096,26.496 0,10.368 -4.608,19.968 -4.608,9.6 -17.472,22.08 l -45.696,44.928 z" />
    </g>
    <path
       transform="matrix(0.26458333,0,0,0.26458333,0,87)"
       id="rect26"
       d="m 607.73242,304.70117 v 72.85742 a 17.857143,17.857143 0 0 1 5.83789,-1.00195 17.857143,17.857143 0 0 1 6.25781,1.15625 v -73.01172 z"
       style="stroke-width:0.95968467" />
    <path
       transform="matrix(0.26458333,0,0,0.26458333,0,87)"
       id="rect26-8"
       d="m 619.82812,411.12695 a 17.857143,17.857143 0 0 1 -6.25781,1.14453 17.857143,17.857143 0 0 1 -5.83789,-1.0039 v 72.20312 h 12.0957 z"
       style="stroke-width:0.95968467" />
    <path
       transform="matrix(0.26458333,0,0,0.26458333,0,87)"
       id="rect26-5"
       d="m 521.66211,388.40234 v 12.09375 h 75.13672 a 17.857143,17.857143 0 0 1 -1.08399,-6.08203 17.857143,17.857143 0 0 1 1.06446,-6.01172 z"
       clip-path="none"
       style="stroke-width:0.95968467" />
    <path
       transform="matrix(0.26458333,0,0,0.26458333,0,87)"
       id="rect26-5-6"
       d="m 630.36719,388.40234 a 17.857143,17.857143 0 0 1 1.06054,6.01172 17.857143,17.857143 0 0 1 -1.08984,6.08203 h 74.0957 v -12.09375 z"
       style="stroke-width:0.95968467" />
    <circle
       r="1.3229166"
       style="stroke-width:0.26458332"
       cy="191.43127"
       cx="162.45419"
       id="path75" />
  </g>
</svg>
